<?xml version="1.0"?>
<svg xmlns="http://www.w3.org/2000/svg" xmlns:xlink="http://www.w3.org/1999/xlink" xmlns:svgjs="http://svgjs.com/svgjs" version="1.1" width="512" height="512" x="0" y="0" viewBox="0 0 512 512" style="enable-background:new 0 0 512 512" xml:space="preserve"><g>
<g xmlns="http://www.w3.org/2000/svg">
	<g>
		<path d="M512,111.718c0-31.602-15.389-61.857-42.22-83.009c-3.258-2.569-7.984-2.011-10.554,1.249    c-2.569,3.259-2.01,7.985,1.249,10.554c23.193,18.284,36.495,44.237,36.495,71.206c0,53.314-50.566,96.689-112.72,96.689    c-13.915,0-27.511-2.157-40.409-6.414c-1.737-0.573-3.624-0.494-5.306,0.226l-35.381,15.115l10.554-22.677    c1.515-3.255,0.515-7.127-2.386-9.243c-25.287-18.44-39.792-45.3-39.792-73.696c0-53.314,50.566-96.689,112.72-96.689    c15.847,0,31.169,2.767,45.542,8.225c3.882,1.473,8.22-0.478,9.693-4.357c1.473-3.881-0.478-8.22-4.357-9.693    C419.045,3.096,401.927,0,384.25,0c-51.169,0-95.399,26.449-115.777,64.531c-4.135-0.266-8.323-0.406-12.473-0.406    C150.2,64.125,64.125,150.2,64.125,256c0,15.183,1.801,30.265,5.308,44.9C28.238,319.461,0,357.041,0,400.282    C0,461.883,57.308,512,127.75,512c51.166,0,95.395-26.446,115.773-64.525c4.125,0.266,8.322,0.4,12.477,0.4    c105.8,0,191.875-86.075,191.875-191.875c0-15.179-1.799-30.267-5.307-44.9C483.762,192.538,512,154.959,512,111.718z     M428.416,216.551c2.38,10.452,3.799,21.148,4.252,31.934h-41.017c-0.23-8.453-0.849-16.871-1.849-25.161    C403.318,222.816,416.297,220.468,428.416,216.551z M341.87,217.138c10.586,3.254,21.563,5.241,32.765,5.97    c1.076,8.343,1.736,16.84,1.983,25.378h-65.052c-0.064-6.115-0.201-12.218-0.418-18.223L341.87,217.138z M311.567,263.515h65.053    c-0.846,29.476-6.637,57.109-16.193,81.159h-54.632C309.333,319.388,311.272,291.514,311.567,263.515z M273.418,167.327    c6.393,9.738,14.49,18.669,24.123,26.449l-16.292,35.006c-2.841,6.105,3.555,12.735,9.765,10.082l5.296-2.262    c0.108,3.94,0.181,7.908,0.223,11.884h-81.071c0.303-28.881,2.346-56.532,5.939-81.159H273.418z M256,79.155    c1.996,0,4.003,0.038,6.007,0.105c-3.575,10.276-5.506,21.173-5.506,32.458c0,14.083,3.014,27.81,8.698,40.579h-41.344    c1.593-8.767,3.398-17.056,5.409-24.762C237.982,94.114,248.974,79.155,256,79.155z M230.354,83.183    c-9.5,15.772-16.792,40.223-21.803,69.114h-50.286C175.415,117.717,200.895,92.555,230.354,83.183z M200.433,248.485H135.38    c0.846-29.476,6.637-57.109,16.193-81.159h54.632C202.667,192.612,200.728,220.486,200.433,248.485z M200.858,281.734    l-30.729,13.128c-10.584-3.254-21.56-5.241-32.761-5.97c-1.076-8.342-1.74-16.839-1.987-25.378h65.051    C200.496,269.629,200.642,275.721,200.858,281.734z M180.943,95.897c-7.785,7.31-15.093,15.808-21.799,25.449    c-6.641,9.546-12.483,19.922-17.497,30.951h-28.802C130.343,128.21,153.758,108.693,180.943,95.897z M103.061,167.295    c0.211,0.018,0.425,0.032,0.641,0.032h31.775c-9.16,24.882-14.357,52.473-15.132,81.159H79.325    C80.564,218.996,89.054,191.353,103.061,167.295z M122.194,288.676c-13.517,0.509-26.497,2.858-38.617,6.776    c-2.38-10.453-3.792-21.15-4.244-31.937h41.016C120.578,271.968,121.194,280.388,122.194,288.676z M127.75,496.971    c-62.154,0-112.72-43.375-112.72-96.689s50.566-96.689,112.72-96.689c13.915,0,27.511,2.157,40.409,6.414    c1.737,0.572,3.623,0.493,5.306-0.226l35.381-15.115l-10.554,22.677c-1.515,3.255-0.515,7.127,2.386,9.243    c25.287,18.44,39.792,45.3,39.792,73.696C240.47,453.596,189.904,496.971,127.75,496.971z M238.582,344.673    c-6.393-9.738-14.49-18.668-24.123-26.449l16.292-35.006c2.845-6.113-3.564-12.731-9.765-10.082l-5.293,2.261    c-0.108-3.942-0.185-7.908-0.228-11.883h81.073c-0.303,28.881-2.346,56.532-5.939,81.159H238.582z M256,432.845    c-1.997,0-4.004-0.037-6.007-0.104c3.575-10.277,5.506-21.174,5.506-32.459c0-14.083-3.014-27.81-8.698-40.579h41.344    c-1.593,8.767-3.398,17.056-5.409,24.762C274.018,417.886,263.026,432.845,256,432.845z M281.646,428.817    c9.5-15.772,16.792-40.223,21.803-69.114h50.286C336.585,394.283,311.105,419.445,281.646,428.817z M331.057,416.103    c7.785-7.31,15.092-15.808,21.799-25.449c6.641-9.546,12.483-19.922,17.497-30.951h28.802    C381.657,383.79,358.242,403.307,331.057,416.103z M408.939,344.705c-0.211-0.018-0.425-0.032-0.641-0.032h-31.775    c9.16-24.882,14.357-52.472,15.132-81.159h41.021C431.436,293.004,422.946,320.647,408.939,344.705z" fill="#ffffff" data-original="#000000" style=""/>
	</g>
</g>
<g xmlns="http://www.w3.org/2000/svg">
	<g>
		<path d="M384.25,48.094c-10.773,0-19.538,8.765-19.538,19.538c0,10.773,8.765,19.538,19.538,19.538s19.538-8.765,19.538-19.538    C403.789,56.859,395.024,48.094,384.25,48.094z M384.25,72.141c-2.486,0-4.509-2.023-4.509-4.509c0-2.486,2.023-4.509,4.509-4.509    s4.509,2.023,4.509,4.509C388.759,70.118,386.736,72.141,384.25,72.141z" fill="#ffffff" data-original="#000000" style=""/>
	</g>
</g>
<g xmlns="http://www.w3.org/2000/svg">
	<g>
		<path d="M396.274,96.188h-24.047c-4.15,0-7.515,3.365-7.515,7.515v72.141c0,4.15,3.365,7.515,7.515,7.515h24.047    c4.15,0,7.515-3.365,7.515-7.515v-72.141C403.789,99.552,400.424,96.188,396.274,96.188z M388.759,168.329h-9.018v-57.112h9.018    V168.329z" fill="#ffffff" data-original="#000000" style=""/>
	</g>
</g>
<g xmlns="http://www.w3.org/2000/svg">
	<g>
		<path d="M127.75,444.869c-10.773,0-19.538,8.765-19.538,19.538s8.765,19.538,19.538,19.538c10.773,0,19.538-8.765,19.538-19.538    S138.523,444.869,127.75,444.869z M127.75,468.916c-2.486,0-4.509-2.023-4.509-4.509s2.023-4.509,4.509-4.509    s4.509,2.023,4.509,4.509S130.235,468.916,127.75,468.916z" fill="#ffffff" data-original="#000000" style=""/>
	</g>
</g>
<g xmlns="http://www.w3.org/2000/svg">
	<g>
		<path d="M127.75,316.618c-28.453,0-51.601,23.148-51.601,51.601c0,10.773,8.765,19.538,19.538,19.538    c10.773,0,19.538-8.765,19.538-19.538c0-6.906,5.618-12.524,12.524-12.524s12.524,5.618,12.524,12.524    s-5.618,12.524-12.524,12.524c-10.773,0-19.538,8.765-19.538,19.538v32.063c0,4.15,3.365,7.515,7.515,7.515h24.047    c4.15,0,7.515-3.365,7.515-7.515v-16.366c19.134-7.856,32.063-26.741,32.063-47.759    C179.35,339.767,156.202,316.618,127.75,316.618z M137.721,403.41c-3.232,0.918-5.463,3.869-5.463,7.229v14.191h-9.018v-24.548    c0-2.486,2.023-4.509,4.509-4.509c15.194,0,27.554-12.36,27.554-27.554s-12.36-27.554-27.554-27.554s-27.554,12.36-27.554,27.554    c0,2.486-2.023,4.509-4.509,4.509s-4.509-2.023-4.509-4.509c0-20.165,16.406-36.571,36.571-36.571s36.571,16.406,36.571,36.571    C164.321,384.494,153.383,398.965,137.721,403.41z" fill="#ffffff" data-original="#000000" style=""/>
	</g>
</g>
<g xmlns="http://www.w3.org/2000/svg">
</g>
<g xmlns="http://www.w3.org/2000/svg">
</g>
<g xmlns="http://www.w3.org/2000/svg">
</g>
<g xmlns="http://www.w3.org/2000/svg">
</g>
<g xmlns="http://www.w3.org/2000/svg">
</g>
<g xmlns="http://www.w3.org/2000/svg">
</g>
<g xmlns="http://www.w3.org/2000/svg">
</g>
<g xmlns="http://www.w3.org/2000/svg">
</g>
<g xmlns="http://www.w3.org/2000/svg">
</g>
<g xmlns="http://www.w3.org/2000/svg">
</g>
<g xmlns="http://www.w3.org/2000/svg">
</g>
<g xmlns="http://www.w3.org/2000/svg">
</g>
<g xmlns="http://www.w3.org/2000/svg">
</g>
<g xmlns="http://www.w3.org/2000/svg">
</g>
<g xmlns="http://www.w3.org/2000/svg">
</g>
</g></svg>
