<?xml version="1.0" encoding="iso-8859-1"?>
<!-- Generator: Adobe Illustrator 19.0.0, SVG Export Plug-In . SVG Version: 6.00 Build 0)  -->
<svg version="1.1" id="Capa_1" xmlns="http://www.w3.org/2000/svg" xmlns:xlink="http://www.w3.org/1999/xlink" x="0px" y="0px"
	 viewBox="0 0 512 512" style="enable-background:new 0 0 512 512;" xml:space="preserve">
<circle style="fill:#B0DB51;" cx="256" cy="256" r="184.36"/>
<path style="fill:#9CC445;" d="M288.063,424.329c-101.819,0-184.36-82.541-184.36-184.36c0-65.811,34.49-123.557,86.374-156.178
	C120.819,110.319,71.64,177.412,71.64,256c0,101.819,82.541,184.36,184.36,184.36c36.008,0,69.599-10.333,97.986-28.182
	C333.514,420.02,311.293,424.329,288.063,424.329z"/>
<path style="fill:#F3F1F1;" d="M306.895,191.486l-18.833,40.467l53.424-22.823c13.288,4.384,27.7,6.791,42.764,6.791
	c66.404,0,120.235-46.653,120.235-104.204S450.654,7.515,384.25,7.515S264.016,54.168,264.016,111.718
	C264.016,143.734,280.68,172.371,306.895,191.486z"/>
<path style="fill:#E6E3E2;" d="M313.421,221.12l17.521-37.65c-26.215-19.115-42.88-47.752-42.88-79.768
	c0-40.391,26.518-75.413,65.288-92.707c-51.429,11.82-89.334,52.432-89.334,100.723c0,32.016,16.665,60.652,42.88,79.768
	l-18.833,40.467L313.421,221.12z"/>
<g>
	<rect x="372.227" y="103.703" style="fill:#FF7883;" width="24.047" height="72.141"/>
	<circle style="fill:#FF7883;" cx="384.25" cy="67.632" r="12.023"/>
</g>
<path style="fill:#F3F1F1;" d="M205.105,320.514l18.833-40.467l-53.424,22.823c-13.288-4.384-27.7-6.791-42.764-6.791
	c-66.404,0-120.235,46.653-120.235,104.204S61.346,504.485,127.75,504.485s120.235-46.653,120.235-104.204
	C247.984,368.266,231.32,339.629,205.105,320.514z"/>
<path style="fill:#E6E3E2;" d="M143.781,488.454c-66.404,0-120.235-46.653-120.235-104.204c0-22.271,8.067-42.907,21.799-59.842
	c-23.286,19.003-37.83,45.965-37.83,75.873c0,57.55,53.831,104.204,120.235,104.204c40.706,0,76.683-17.535,98.436-44.362
	C204.664,477.687,175.675,488.454,143.781,488.454z"/>
<g>
	<circle style="fill:#AE85CC;" cx="127.75" cy="464.407" r="12.023"/>
	<path style="fill:#AE85CC;" d="M127.75,324.133c-24.309,0-44.086,19.777-44.086,44.086c0,6.64,5.384,12.023,12.023,12.023
		s12.023-5.383,12.023-12.023c0-11.05,8.99-20.039,20.039-20.039s20.039,8.99,20.039,20.039s-8.99,20.039-20.039,20.039
		c-6.64,0-12.023,5.384-12.023,12.023v32.063h24.047v-21.705c18.484-5.246,32.063-22.277,32.063-42.42
		C171.836,343.91,152.059,324.133,127.75,324.133z"/>
</g>
<path d="M512,111.718c0-31.602-15.389-61.857-42.22-83.009c-3.258-2.569-7.984-2.011-10.554,1.249
	c-2.569,3.259-2.01,7.985,1.249,10.554c23.193,18.284,36.495,44.237,36.495,71.206c0,53.314-50.566,96.689-112.72,96.689
	c-13.915,0-27.511-2.157-40.409-6.414c-1.737-0.573-3.624-0.494-5.306,0.226l-35.381,15.115l10.554-22.677
	c1.515-3.255,0.515-7.127-2.386-9.243c-25.287-18.44-39.792-45.3-39.792-73.696c0-53.314,50.566-96.689,112.72-96.689
	c15.847,0,31.169,2.767,45.542,8.225c3.882,1.473,8.22-0.478,9.693-4.358c1.473-3.881-0.478-8.22-4.358-9.693
	C419.045,3.096,401.927,0,384.25,0c-51.169,0-95.399,26.449-115.777,64.531c-4.135-0.266-8.323-0.406-12.473-0.406
	C150.2,64.125,64.125,150.2,64.125,256c0,15.183,1.801,30.265,5.308,44.9C28.238,319.461,0,357.041,0,400.282
	C0,461.883,57.308,512,127.75,512c51.166,0,95.395-26.446,115.773-64.525c4.125,0.266,8.322,0.4,12.477,0.4
	c105.8,0,191.875-86.075,191.875-191.875c0-15.179-1.799-30.267-5.307-44.9C483.762,192.538,512,154.959,512,111.718z
	 M432.675,263.515c-1.239,29.49-9.729,57.133-23.736,81.191c-0.211-0.018-0.425-0.032-0.641-0.032h-31.775
	c9.16-24.882,14.357-52.472,15.132-81.159L432.675,263.515L432.675,263.515z M360.427,344.673h-54.632
	c3.538-25.285,5.477-53.159,5.771-81.159h65.053C375.774,292.99,369.983,320.623,360.427,344.673z M281.646,428.817
	c9.5-15.772,16.792-40.223,21.803-69.114h50.286C336.585,394.283,311.105,419.445,281.646,428.817z M214.459,318.225l16.292-35.006
	c2.845-6.113-3.564-12.731-9.765-10.082l-5.293,2.261c-0.108-3.942-0.185-7.908-0.228-11.883h81.073
	c-0.303,28.881-2.346,56.532-5.939,81.159h-52.017C232.188,334.935,224.092,326.005,214.459,318.225z M79.325,248.485
	c1.239-29.49,9.729-57.133,23.736-81.191c0.211,0.018,0.425,0.032,0.641,0.032h31.775c-9.16,24.882-14.357,52.472-15.132,81.159
	H79.325z M151.573,167.327h54.632c-3.538,25.285-5.477,53.159-5.771,81.159H135.38C136.226,219.01,142.017,191.377,151.573,167.327z
	 M230.354,83.183c-9.5,15.772-16.792,40.223-21.803,69.114h-50.286C175.415,117.717,200.895,92.555,230.354,83.183z
	 M137.368,288.892c-1.076-8.342-1.74-16.839-1.987-25.378h65.051c0.063,6.114,0.209,12.206,0.426,18.22l-30.729,13.128
	C159.546,291.608,148.569,289.621,137.368,288.892z M341.87,217.138c10.586,3.254,21.563,5.241,32.765,5.97
	c1.076,8.343,1.736,16.84,1.983,25.378h-65.052c-0.064-6.115-0.201-12.218-0.418-18.223L341.87,217.138z M297.541,193.775
	l-16.292,35.006c-2.841,6.105,3.555,12.735,9.765,10.082l5.296-2.262c0.108,3.94,0.181,7.908,0.223,11.884h-81.071
	c0.303-28.881,2.346-56.532,5.939-81.159h52.017C279.812,177.065,287.908,185.995,297.541,193.775z M265.199,152.297h-41.344
	c1.593-8.767,3.398-17.056,5.409-24.762c8.718-33.421,19.711-48.38,26.736-48.38c1.996,0,4.003,0.038,6.007,0.105
	c-3.575,10.276-5.506,21.173-5.506,32.458C256.501,125.802,259.515,139.529,265.199,152.297z M180.943,95.897
	c-7.785,7.31-15.092,15.808-21.799,25.449c-6.641,9.546-12.483,19.922-17.497,30.951h-28.802
	C130.343,128.21,153.758,108.693,180.943,95.897z M79.332,263.515h41.016c0.23,8.454,0.846,16.873,1.846,25.161
	c-13.517,0.509-26.497,2.858-38.617,6.776C81.197,284.999,79.784,274.302,79.332,263.515z M127.75,496.971
	c-62.154,0-112.72-43.375-112.72-96.689s50.566-96.689,112.72-96.689c13.915,0,27.511,2.157,40.409,6.414
	c1.737,0.572,3.623,0.493,5.306-0.226l35.381-15.115l-10.554,22.677c-1.515,3.255-0.515,7.127,2.386,9.243
	c25.287,18.44,39.792,45.301,39.792,73.696C240.47,453.596,189.904,496.971,127.75,496.971z M246.801,359.703h41.344
	c-1.593,8.767-3.398,17.056-5.409,24.762c-8.718,33.421-19.71,48.38-26.736,48.38c-1.997,0-4.004-0.037-6.007-0.104
	c3.575-10.277,5.506-21.174,5.506-32.459C255.499,386.198,252.485,372.471,246.801,359.703z M331.057,416.103
	c7.785-7.31,15.092-15.808,21.799-25.449c6.641-9.546,12.483-19.922,17.497-30.951h28.802
	C381.657,383.79,358.242,403.307,331.057,416.103z M432.668,248.485h-41.017c-0.23-8.454-0.849-16.871-1.849-25.161
	c13.515-0.508,26.495-2.857,38.613-6.773C430.795,227.003,432.215,237.699,432.668,248.485z"/>
<path d="M384.25,48.094c-10.773,0-19.538,8.765-19.538,19.538s8.765,19.538,19.538,19.538c10.773,0,19.538-8.765,19.538-19.538
	S395.024,48.094,384.25,48.094z M384.25,72.141c-2.486,0-4.509-2.023-4.509-4.509c0-2.486,2.023-4.509,4.509-4.509
	s4.509,2.023,4.509,4.509C388.759,70.118,386.736,72.141,384.25,72.141z"/>
<path d="M372.227,96.188c-4.15,0-7.515,3.365-7.515,7.515v72.141c0,4.15,3.365,7.515,7.515,7.515h24.047
	c4.15,0,7.515-3.365,7.515-7.515v-72.141c0-4.15-3.365-7.515-7.515-7.515H372.227z M388.759,168.329h-9.018v-57.112h9.018V168.329z"
	/>
<path d="M127.75,444.869c-10.773,0-19.538,8.765-19.538,19.538c0,10.773,8.765,19.538,19.538,19.538s19.538-8.765,19.538-19.538
	C147.288,453.634,138.523,444.869,127.75,444.869z M127.75,468.916c-2.486,0-4.509-2.023-4.509-4.509s2.023-4.509,4.509-4.509
	c2.486,0,4.509,2.023,4.509,4.509S130.235,468.916,127.75,468.916z"/>
<path d="M127.75,316.618c-28.453,0-51.601,23.148-51.601,51.601c0,10.773,8.765,19.538,19.538,19.538s19.538-8.765,19.538-19.538
	c0-6.906,5.618-12.524,12.524-12.524c6.906,0,12.524,5.618,12.524,12.524s-5.618,12.524-12.524,12.524
	c-10.773,0-19.538,8.765-19.538,19.538v32.063c0,4.15,3.365,7.515,7.515,7.515h24.047c4.15,0,7.515-3.365,7.515-7.515v-16.366
	c19.134-7.856,32.063-26.741,32.063-47.759C179.35,339.767,156.202,316.618,127.75,316.618z M137.721,403.41
	c-3.232,0.918-5.463,3.869-5.463,7.229v14.191h-9.018v-24.548c0-2.486,2.023-4.509,4.509-4.509c15.194,0,27.554-12.36,27.554-27.554
	s-12.36-27.554-27.554-27.554s-27.554,12.36-27.554,27.554c0,2.486-2.023,4.509-4.509,4.509c-2.486,0-4.509-2.023-4.509-4.509
	c0-20.165,16.406-36.571,36.571-36.571s36.571,16.406,36.571,36.571C164.321,384.494,153.383,398.965,137.721,403.41z"/>
<g>
</g>
<g>
</g>
<g>
</g>
<g>
</g>
<g>
</g>
<g>
</g>
<g>
</g>
<g>
</g>
<g>
</g>
<g>
</g>
<g>
</g>
<g>
</g>
<g>
</g>
<g>
</g>
<g>
</g>
</svg>
