<?xml version="1.0" encoding="iso-8859-1"?>
<!-- Generator: Adobe Illustrator 19.0.0, SVG Export Plug-In . SVG Version: 6.00 Build 0)  -->
<svg version="1.1" id="Capa_1" xmlns="http://www.w3.org/2000/svg" xmlns:xlink="http://www.w3.org/1999/xlink" x="0px" y="0px"
	 viewBox="0 0 512 512" style="enable-background:new 0 0 512 512;" xml:space="preserve">
<path style="fill:#B0DB51;" d="M256,64C150.131,64,64,150.131,64,256s86.131,192,192,192s192-86.131,192-192S361.869,64,256,64z"/>
<path style="fill:#9CC445;" d="M280,432c-105.869,0-192-86.131-192-192c0-61.431,29.004-116.212,74.033-151.38
	C103.573,121.569,64,184.245,64,256c0,105.869,86.131,192,192,192c44.438,0,85.394-15.18,117.967-40.62
	C346.173,423.045,314.115,432,280,432z"/>
<path style="fill:#86AD32;" d="M353.077,390.676c6.586-9.467,12.387-19.75,17.375-30.676h46.871
	c3.268-5.051,6.301-10.266,9.093-15.627C425.653,344.132,424.842,344,424,344h-47c8.956-24.568,14.065-51.748,14.877-80h55.944
	c0.109-2.655,0.179-5.319,0.179-8s-0.07-5.345-0.179-8h-55.944c-0.812-28.252-5.921-55.432-14.877-80h49.612
	c-2.845-5.493-5.946-10.831-9.29-16h-46.871c-4.987-10.926-10.789-21.209-17.375-30.676C327.361,84.358,292.886,64,256,64
	s-71.361,20.358-97.077,57.324c-6.586,9.467-12.387,19.75-17.375,30.676h-46.87c-3.344,5.169-6.445,10.507-9.29,16H135
	c-8.956,24.568-14.065,51.748-14.877,80H64.179C64.07,250.655,64,253.319,64,256s0.07,5.345,0.179,8h55.944
	c0.812,28.252,5.921,55.432,14.877,80H85.388c2.845,5.493,5.946,10.831,9.29,16h46.871c4.987,10.926,10.789,21.209,17.375,30.676
	C184.639,427.642,219.114,448,256,448S327.361,427.642,353.077,390.676z M359.891,344h-53.636c3.431-24.491,5.387-51.698,5.698-80
	h63.918C374.98,293.037,369.273,320.265,359.891,344z M359.891,168c9.382,23.735,15.089,50.963,15.979,80h-63.918
	c-0.311-28.302-2.267-55.509-5.698-80H359.891z M352.745,152h-49.01c-1.757-9.988-3.778-19.409-6.052-28.127
	c-4.322-16.569-9.283-29.718-14.851-39.434C311.319,94.019,335.966,118.517,352.745,152z M216.047,248
	c0.318-28.454,2.332-55.696,5.855-80h68.196c3.523,24.304,5.537,51.546,5.855,80H216.047z M295.953,264
	c-0.318,28.454-2.332,55.696-5.855,80h-68.196c-3.523-24.304-5.537-51.546-5.855-80H295.953z M256,80
	c5.089,0,16.334,10.091,26.2,47.912c1.959,7.508,3.723,15.568,5.285,24.088h-62.969c1.562-8.521,3.326-16.581,5.285-24.088
	C239.666,90.091,250.911,80,256,80z M229.168,84.439c-5.567,9.716-10.528,22.865-14.851,39.434
	c-2.274,8.718-4.296,18.139-6.052,28.127h-49.01C176.034,118.517,200.681,94.019,229.168,84.439z M152.109,168h53.636
	c-3.431,24.491-5.387,51.698-5.698,80h-63.918C137.02,218.963,142.727,191.735,152.109,168z M152.109,344
	c-9.382-23.735-15.089-50.963-15.979-80h63.918c0.311,28.302,2.267,55.509,5.698,80H152.109z M159.255,360h49.01
	c1.757,9.988,3.778,19.409,6.052,28.127c4.322,16.569,9.283,29.718,14.851,39.434C200.681,417.981,176.034,393.483,159.255,360z
	 M256,432c-5.089,0-16.334-10.091-26.2-47.912c-1.959-7.508-3.723-15.568-5.285-24.088h62.969
	c-1.562,8.521-3.326,16.581-5.285,24.088C272.334,421.909,261.089,432,256,432z M282.832,427.561
	c5.567-9.716,10.528-22.865,14.851-39.434c2.274-8.718,4.296-18.139,6.052-28.127h49.01
	C335.966,393.483,311.319,417.981,282.832,427.561z"/>
<path style="fill:#F3F1F1;" d="M384,0c-70.58,0-128,50.243-128,112c0,31.305,14.802,60.871,40.842,82.041l-16.095,34.584
	c-1.315,2.825-0.84,6.239,1.195,8.598c2.252,2.611,6.026,3.49,9.2,2.134l50.587-21.611C355.297,221.897,369.501,224,384,224
	c70.58,0,128-50.243,128-112S454.58,0,384,0z"/>
<path style="fill:#E6E3E2;" d="M304.747,228.625l16.095-34.584C294.802,172.871,280,143.305,280,112
	C280,53.784,331.027,5.807,396,0.496C392.048,0.173,388.047,0,384,0c-70.58,0-128,50.243-128,112
	c0,31.305,14.802,60.871,40.842,82.041l-16.095,34.584c-1.315,2.825-0.84,6.239,1.195,8.598c2.252,2.611,6.026,3.49,9.2,2.134
	l13.087-5.591C303.846,232.065,303.991,230.249,304.747,228.625z"/>
<g>
	<path style="fill:#FF7883;" d="M368,104v64c0,4.418,3.582,8,8,8h16c4.418,0,8-3.582,8-8v-64c0-4.418-3.582-8-8-8h-16
		C371.582,96,368,99.582,368,104z"/>
	<path style="fill:#FF7883;" d="M384,88c11.028,0,20-8.972,20-20s-8.972-20-20-20s-20,8.972-20,20S372.972,88,384,88z"/>
</g>
<path style="fill:#F3F1F1;" d="M215.158,317.959l16.095-34.584c1.384-2.973,0.775-6.586-1.507-8.941
	c-2.281-2.355-5.873-3.079-8.889-1.791l-50.587,21.611C156.703,290.103,142.499,288,128,288C57.42,288,0,338.243,0,400
	s57.42,112,128,112s128-50.243,128-112C256,368.695,241.198,339.129,215.158,317.959z"/>
<path style="fill:#E6E3E2;" d="M152,504c-70.58,0-128-50.243-128-112c0-43.773,28.853-81.756,70.787-100.169
	C40.258,304.663,0,348.292,0,400c0,61.757,57.42,112,128,112c20.553,0,39.985-4.267,57.213-11.832
	C174.616,502.662,163.484,504,152,504z"/>
<g>
	<path style="fill:#C4A0DE;" d="M128,448c-11.028,0-20,8.972-20,20s8.972,20,20,20s20-8.972,20-20S139.028,448,128,448z"/>
	<path style="fill:#C4A0DE;" d="M131.496,324.136c-25.565-1.985-47.047,18.026-47.489,43.076c-0.115,6.533,4.641,12.32,11.161,12.76
		C102.172,380.444,108,374.903,108,368c0-11.404,9.595-20.61,21.136-19.968c10.324,0.574,18.645,9.208,18.859,19.546
		c0.233,11.227-8.838,20.433-20.015,20.423c-6.666-0.006-11.981,5.615-11.981,12.281V432c0,4.418,3.582,8,8,8h8c4.418,0,8-3.582,8-8
		v-21.663c19.428-5.514,33.426-24.072,31.884-45.565C170.34,343.243,153.014,325.807,131.496,324.136z"/>
</g>
<g>
</g>
<g>
</g>
<g>
</g>
<g>
</g>
<g>
</g>
<g>
</g>
<g>
</g>
<g>
</g>
<g>
</g>
<g>
</g>
<g>
</g>
<g>
</g>
<g>
</g>
<g>
</g>
<g>
</g>
</svg>
