<svg id="Capa_1" enable-background="new 0 0 512 512" height="512" viewBox="0 0 512 512" width="512" xmlns="http://www.w3.org/2000/svg"><g><g><path d="m7.5 196.217c88.429 13.994 170.067-24.266 248.5-60.217 89.15 2.188 171.635 10.501 248.5 59.783v120c-88.448-13.996-170.048 24.258-248.5 60.217-89.123-2.187-171.654-10.514-248.5-59.784 0-39.999 0-79.999 0-119.999z" fill="#f2f2f2"/></g><g><path d="m196.006 256c0-33.134 26.86-59.994 59.994-59.994v-60.006c-78.433 35.95-160.071 74.21-248.5 60.216v120c76.847 49.27 159.377 57.597 248.5 59.784v-60.006c-33.134.001-59.994-26.86-59.994-59.994z" fill="#e8e8e8"/></g><g><path d="m32.934 84.825c149.678 42.085 300.512-61.202 450.168-16.48 12.7 3.795 21.398 15.493 21.398 28.749v98.689c-165.142-65.71-331.856 66.145-497 .434 0-30.717 0-61.435 0-92.152 0-13.261 12.668-22.829 25.434-19.24z" fill="#fab659"/></g><g><path d="m7.5 316.217c165.144 65.711 331.857-66.142 497-.434v92.153c0 13.261-12.667 22.829-25.434 19.24-149.678-42.083-300.51 61.2-450.168 16.479-12.7-3.795-21.398-15.493-21.398-28.749 0-32.896 0-65.793 0-98.689z" fill="#60d9a7"/></g><g><path d="m139.553 214.144c-33.134 0-59.994-26.86-59.994-59.994 0-30.746 23.133-56.074 52.941-59.568-33.233 1.751-66.435-.44-99.58-9.76-12.761-3.589-25.42 5.987-25.42 19.243v92.152c43.999 17.507 88.11 20.989 132.272 17.921-.073 0-.145.006-.219.006z" fill="#f59e18"/></g><g><path d="m139.553 454.138c-33.134 0-59.994-26.86-59.994-59.994 0-30.721 23.096-56.033 52.87-59.559-41.709 2.19-83.369-1.832-124.929-18.368v98.693c0 13.206 8.619 24.919 21.27 28.707 36.978 11.07 74.028 13.099 111.114 10.513-.111 0-.22.008-.331.008z" fill="#00c67f"/></g><g><path d="m284.451 242.233c-2.987.631-5.987 1.269-8.988 1.91 2.514-3.056 5.025-6.114 7.54-9.168 2.633-3.197 2.176-7.924-1.022-10.557-3.197-2.634-7.924-2.175-10.557 1.021-2.643 3.21-5.282 6.423-7.924 9.635v-9.074c0-4.142-3.358-7.5-7.5-7.5s-7.5 3.358-7.5 7.5v14.589c-3.027-2.373-6.056-4.744-9.081-7.12-3.257-2.559-7.971-1.993-10.531 1.265-2.559 3.257-1.992 7.972 1.265 10.531 2.877 2.26 5.757 4.514 8.636 6.771-4.781 1.026-9.578 2.05-14.339 3.055-4.053.855-6.645 4.834-5.79 8.887.745 3.531 3.861 5.953 7.331 5.953.513 0 1.034-.053 1.556-.163 2.987-.63 5.987-1.269 8.988-1.91-2.513 3.055-5.024 6.113-7.54 9.167-2.633 3.198-2.176 7.924 1.021 10.558 1.397 1.15 3.085 1.71 4.764 1.71 2.164 0 4.311-.932 5.794-2.732 2.643-3.21 5.282-6.423 7.924-9.635v9.074c0 4.142 3.358 7.5 7.5 7.5s7.5-3.358 7.5-7.5v-14.589c3.027 2.373 6.056 4.744 9.081 7.12 1.374 1.079 3.006 1.603 4.628 1.603 2.223 0 4.423-.984 5.903-2.868 2.559-3.257 1.992-7.972-1.265-10.531-2.877-2.26-5.757-4.514-8.636-6.771 4.781-1.026 9.578-2.05 14.338-3.055 4.053-.855 6.645-4.834 5.79-8.887-.854-4.052-4.832-6.644-8.886-5.789z"/><path d="m485.25 61.159c-77.287-23.095-155.284-7.549-230.714 7.486-72.336 14.418-147.136 29.328-219.571 8.96-8.373-2.354-17.151-.694-24.079 4.555-6.919 5.241-10.886 13.225-10.886 21.905v310.841c0 16.452 11 31.229 26.751 35.935 28.375 8.479 56.844 11.75 85.248 11.75 48.964 0 97.731-9.72 145.469-19.234 72.336-14.417 147.134-29.326 219.569-8.96 8.373 2.354 17.15.695 24.079-4.555 6.917-5.242 10.884-13.226 10.884-21.906v-310.842c0-16.451-11-31.228-26.75-35.935zm6.807 356.725c-3.153 2.388-7.15 3.142-10.961 2.071-75.897-21.339-152.49-6.073-226.561 8.69-73.633 14.676-149.773 29.851-223.49 7.824-9.447-2.823-16.045-11.69-16.045-21.563v-87.906c32.329 11.322 64.748 15.58 97.076 15.58 48.931 0 97.639-9.708 145.393-19.225 48.562-9.68 98.782-19.686 147.675-18.953 4.13.072 7.55-3.244 7.612-7.386.063-4.142-3.245-7.55-7.386-7.612-50.503-.767-101.502 9.407-150.833 19.24-82.564 16.456-160.634 32.012-239.537 2.425v-104.056c29.914 10.519 61.367 15.631 96.839 15.631 9.234 0 18.747-.346 28.567-1.03 4.132-.288 7.249-3.872 6.96-8.003-.289-4.133-3.882-7.246-8.003-6.96-47.539 3.313-87.202-1.643-124.363-15.58v-87.006c0-3.943 1.802-7.569 4.943-9.949 2.212-1.676 4.84-2.548 7.529-2.548 1.142 0 2.295.157 3.432.477 75.897 21.34 152.492 6.074 226.563-8.69 73.633-14.676 149.773-29.852 223.488-7.824 9.447 2.823 16.045 11.69 16.045 21.563v87.889c-81.265-28.458-163.163-12.143-242.465 3.663-28.105 5.602-57.167 11.395-85.604 15.037-4.108.526-7.012 4.283-6.486 8.392.485 3.785 3.712 6.548 7.43 6.548.317 0 .639-.021.962-.062 28.953-3.709 58.274-9.553 86.63-15.205 82.564-16.457 160.629-32.012 239.533-2.427v104.048c-19.46-6.834-39.522-11.339-61.02-13.702-4.109-.456-7.822 2.518-8.274 6.636-.453 4.117 2.518 7.822 6.636 8.274 22.182 2.438 42.73 7.272 62.658 14.744v87.008c0 3.942-1.801 7.568-4.943 9.947z"/></g></g></svg>