<?xml version="1.0" encoding="iso-8859-1"?>
<!-- Generator: Adobe Illustrator 19.0.0, SVG Export Plug-In . SVG Version: 6.00 Build 0)  -->
<svg version="1.1" id="Capa_1" xmlns="http://www.w3.org/2000/svg" xmlns:xlink="http://www.w3.org/1999/xlink" x="0px" y="0px"
	 viewBox="0 0 510.55 510.55" style="enable-background:new 0 0 510.55 510.55;" xml:space="preserve">
<g>
	<g transform="translate(1 1)">
		<path style="fill:#1566C0;" d="M501.032,253.55c0,136.672-110.795,247.467-247.467,247.467c-4.267,0-8.533-0.085-12.715-0.341
			h-0.171C109.238,493.764,6.206,385.173,6.206,253.55S109.238,13.335,240.68,6.424h0.171c4.181-0.256,8.448-0.341,12.715-0.341
			C390.237,6.083,501.032,116.878,501.032,253.55z"/>
		<path style="fill:#2296F3;" d="M475.432,253.55c-0.065,130.58-101.535,238.66-231.851,246.955
			c-0.939,0.085-1.792,0.085-2.731,0.171h-0.171C109.238,493.764,6.206,385.173,6.206,253.55S109.238,13.335,240.68,6.424h0.171
			C372.334,13.28,475.429,121.887,475.432,253.55z"/>
		<path style="fill:#CDDC39;" d="M363.594,137.223c-3.243,9.984-14.933,14.336-22.784,19.797
			c-10.207,7.736-21.398,14.078-33.28,18.859c-11.861,4.267-25.515,4.864-36.181,11.776c-10.667,6.912-10.069,16.896-8.704,27.989
			c0.589,2.766-0.101,5.65-1.877,7.851c-3.145,2.323-7.369,2.558-10.752,0.597c-7.936-3.243-14.933-8.533-23.723-4.864
			c-7.801,3.421-12.782,11.195-12.629,19.712c0,18.176,15.701,28.16,28.245,38.315c3.584,2.987,19.797,20.309,10.155,24.32
			c-2.025,0.552-4.172,0.463-6.144-0.256c-18.603-4.693-37.205-9.301-55.808-13.824c-15.531-3.755-32.683-8.704-40.448-22.613
			c-6.571-11.776-4.693-27.221-12.629-37.973c-6.997-9.472-19.371-12.629-30.635-15.872c-11.264-3.243-23.467-8.619-27.648-19.541
			c-6.827-18.005,12.715-37.291,7.936-55.979c-4.523-17.493-22.869-18.944-36.864-12.715c-2.997,1.294-5.719,3.147-8.021,5.461
			l-1.109-1.109c32.2-54.373,84.03-94.323,144.811-111.616c9.506,14.54,25.401,23.646,42.752,24.491
			c14.336,0.683,28.587-5.035,41.984,3.413c7.443,4.249,11.142,12.938,9.045,21.248c-3.925,11.008-20.309,16.469-19.285,28.075
			c0.853,9.216,12.885,13.141,21.845,11.008s16.981-7.765,26.197-9.131c14.336-2.048,27.648,6.827,39.424,15.275
			C356.682,116.573,367.058,126.471,363.594,137.223z"/>
		<path style="fill:#9E9D24;" d="M413.053,442.648c-44.454,37.547-100.787,58.109-158.976,58.027c-3.499,0-6.997-0.085-10.496-0.171
			c56.714-3.479,110.475-26.485,152.149-65.109C401.362,438.04,407.165,440.43,413.053,442.648z"/>
		<path style="fill:#CDDC39;" d="M395.73,435.395c-41.675,38.624-95.435,61.63-152.149,65.109
			c-9.464-0.404-18.896-1.373-28.245-2.901c-4.054-2.233-7.985-4.683-11.776-7.339c-9.268-5.733-15.352-15.442-16.469-26.283
			c0.426-6.494,2.416-12.789,5.803-18.347c4.181-8.192,3.499-18.773,9.813-25.771c5.376-5.888,13.653-7.424,19.883-12.203
			c5.869-4.743,10.742-10.602,14.336-17.237c4.238-10.298,9.619-20.087,16.043-29.184c11.093-11.691,29.44-6.912,42.069-0.853
			c13.861,6.278,26.602,14.781,37.717,25.173c11.112,11.781,22.939,22.867,35.413,33.195
			C376.653,425.39,385.907,430.977,395.73,435.395z"/>
	</g>
	<path d="M255.248,0c-23.555-0.043-47,3.203-69.658,9.643l-0.341,0.102C122.365,27.525,68.761,68.874,35.6,125.184
		c-0.587,0.992-0.967,2.092-1.118,3.234c-4.075,5.439-7.457,11.364-10.069,17.638l-0.64,1.382
		c-36.715,79.082-30.572,171.426,16.296,244.947s127.99,118.068,215.179,118.163c58.613,0.05,115.441-20.167,160.853-57.225
		c3.679,0.316,7.136-1.796,8.533-5.214c0.267-0.788,0.419-1.61,0.452-2.441c79.084-70.443,106.428-182.418,68.714-281.383
		S361.155-0.054,255.248,0z M184.353,27.828c11.282,13.837,27.906,22.236,45.739,23.108c4.876,0.126,9.754-0.087,14.601-0.64
		c7.839-1.777,16.05-0.8,23.253,2.765c4.032,2.156,6.258,6.628,5.547,11.145c-1.852,3.402-4.392,6.38-7.458,8.747
		c-7.626,5.173-12.221,13.765-12.288,22.98c0.577,5.737,3.648,10.929,8.397,14.199c7.021,4.69,15.673,6.257,23.893,4.326
		c4.554-1.193,8.99-2.798,13.252-4.796c3.875-1.906,7.975-3.313,12.203-4.19c10.803-1.519,21.897,5.623,33.22,13.747
		c5.675,4.105,14.916,11.861,13.005,17.749c-1.468,4.514-6.98,7.774-12.8,11.238c-2.355,1.391-4.659,2.756-7.322,4.608
		c-9.426,7.137-19.756,12.993-30.72,17.417c-4.144,1.379-8.363,2.519-12.638,3.413c-8.902,1.557-17.456,4.68-25.267,9.225
		c-15.676,10.121-13.764,26.317-12.561,36.053c-0.282-0.094-0.589-0.205-0.922-0.35c-1.459-0.597-2.893-1.28-4.318-1.946
		c-8.824-5.952-20.254-6.41-29.526-1.181s-14.795,15.246-14.267,25.877c0,20.25,15.036,32.06,27.119,41.54l4.198,3.328
		c2.667,2.45,5.067,5.176,7.159,8.132c-17.152-4.318-34.315-8.565-51.49-12.74c-14.438-3.49-29.013-7.791-34.987-18.475
		c-2.283-4.841-3.822-9.999-4.565-15.3c-1.082-8.411-4.039-16.471-8.653-23.586c-8.758-9.775-20.56-16.306-33.493-18.534
		l-1.562-0.444c-12.8-3.806-19.814-8.388-22.101-14.387c-1.426-7.786-0.156-15.825,3.601-22.793
		c4.824-10.035,6.433-21.315,4.608-32.299c-1.915-8.423-7.545-15.525-15.309-19.311c-4.613-2.148-9.649-3.23-14.737-3.166
		c-1.084,0-2.185,0.051-3.294,0.137C93.844,72.742,136.071,42.741,184.353,27.828z M219.467,490.787
		c-3.348-1.857-6.596-3.891-9.728-6.093c-6.898-4.297-11.614-11.354-12.945-19.371c0.476-5.147,2.141-10.113,4.864-14.507
		c1.907-4.062,3.317-8.34,4.198-12.74c0.542-3.995,2.002-7.809,4.267-11.145c2.523-2.3,5.447-4.116,8.627-5.359
		c3.561-1.577,6.947-3.522,10.103-5.803c6.809-5.423,12.456-12.162,16.606-19.814c2.005-3.516,3.738-7.347,5.41-11.093
		c2.27-5.939,5.435-11.496,9.387-16.478c8.533-8.986,25.344-2.313,32.154,0.947c12.993,5.836,24.94,13.766,35.362,23.475
		l0.981,1.007c11.042,11.671,22.792,22.652,35.183,32.879c10.251,7.919,21.483,14.479,33.417,19.516
		c-50.989,38.023-115.078,54.05-177.963,44.501L219.467,490.787z M412.432,434.065c-13.533-5.007-26.26-11.967-37.777-20.659
		c-11.845-9.803-23.081-20.318-33.647-31.488l-0.981-0.998c-11.765-11.148-25.324-20.235-40.107-26.88
		c-21.589-10.359-40.516-9.387-51.959,2.679c-5.335,6.317-9.583,13.478-12.57,21.188c-1.527,3.362-3.012,6.682-4.659,9.583
		c-3.035,5.673-7.169,10.686-12.16,14.746c-2.243,1.562-4.635,2.897-7.142,3.985c-5.199,2.134-9.919,5.284-13.884,9.267
		c-4.322,5.397-7.166,11.825-8.252,18.654c-0.594,3.052-1.524,6.028-2.773,8.875c-4.066,6.787-6.393,14.472-6.775,22.374
		c0.125,6.199,1.937,12.246,5.239,17.493C119.258,462.508,65.533,414.74,37.609,351.849S10.28,217.07,39.243,154.65l0.649-1.408
		c2.316-6.117,5.774-11.737,10.189-16.563c1.569-1.565,3.419-2.822,5.453-3.703c3.68-1.647,7.659-2.518,11.691-2.56
		c2.492-0.058,4.967,0.437,7.245,1.451c3.222,1.625,5.509,4.65,6.195,8.192c0.748,7.635-0.674,15.325-4.105,22.187
		c-5.447,10.738-6.703,23.118-3.524,34.731c5.726,14.959,21.683,21.239,33.28,24.687l1.707,0.478
		c9.221,1.478,17.763,5.759,24.465,12.262c3.028,5.141,4.95,10.858,5.641,16.785c1.049,7.057,3.209,13.903,6.4,20.284
		c9.318,16.7,28.578,22.562,45.884,26.743c18.569,4.511,37.154,9.114,55.757,13.807c3.74,1.22,7.778,1.169,11.486-0.145
		c4.325-1.68,7.422-5.543,8.124-10.129c1.946-12.928-15.915-28.476-16.213-28.698l-4.489-3.567
		c-10.59-8.311-20.591-16.162-20.591-28.16c-0.101-5.04,2.803-9.658,7.39-11.75c3.183-1.323,5.845-0.358,12.049,2.56
		c1.707,0.802,3.413,1.604,4.975,2.236c6.63,3.556,14.785,2.529,20.326-2.56c3.605-4.024,5.126-9.499,4.113-14.805
		c-1.399-11.375-0.853-16.077,4.881-19.789c6.192-3.403,12.914-5.737,19.883-6.903c4.909-1.051,9.753-2.387,14.507-4.002
		c12.589-5.023,24.447-11.71,35.26-19.883c1.707-1.203,3.678-2.347,5.658-3.516c9.133-4.094,16.4-11.462,20.369-20.651
		c4.019-12.339-2.458-24.747-19.268-36.873c-10.795-7.74-27.162-19.439-45.645-16.785c-5.735,1.053-11.301,2.879-16.546,5.427
		c-3.342,1.576-6.814,2.861-10.377,3.84c-3.421,0.79-7.014,0.224-10.027-1.579c-1.254-0.905-1.323-1.613-1.348-1.877
		c-0.188-2.219,2.56-4.958,6.827-8.892c5.257-4.13,9.397-9.51,12.041-15.65c3.51-12.069-1.671-24.975-12.552-31.266
		c-10.334-5.684-22.336-7.559-33.911-5.299c-4.061,0.478-8.149,0.672-12.237,0.58c-10.201-0.553-19.936-4.452-27.699-11.093
		c106.216-23.926,215.129,27.25,264.507,124.286C517.037,244.116,494.297,362.285,412.432,434.065z"/>
</g>
<g>
</g>
<g>
</g>
<g>
</g>
<g>
</g>
<g>
</g>
<g>
</g>
<g>
</g>
<g>
</g>
<g>
</g>
<g>
</g>
<g>
</g>
<g>
</g>
<g>
</g>
<g>
</g>
<g>
</g>
</svg>
